<?xml version="1.0" encoding="UTF-8"?>
<svg version="1.1" viewBox="0 0 2000 2000" width="500" height="500" xmlns="http://www.w3.org/2000/svg">
<path transform="translate(0)" d="m0 0h2e3v2e3h-2e3z" fill="#E3E4E3"/>
<path transform="translate(1180,490)" d="m0 0 2 1-23 23-11 14-3 5-4 7-2 5 2-1 6-1 2-4 6-4 5-3 3-1 6-1 19-9 11-8 8-5 2 1-14 10-2 3h-2v2l-11 7-2 6 4-1 7-7 2 1-5 6v2h5 2l5-3 17-7 8-4 16-6 7-1-2 2-13 5-14 7-3 3h-2v8l6-5 2-4 6-4 1-2 4 1-10 10v2l12-5 4-2-5 5-10 5h-2v3l6-1h15v1l-22 2-6 9-3-3-2 5h3l-3 7-3 5h2l10-5 10-10v3l-10 11-11 7-6 7 4-2 9-4 10-8 4-4h2l2-4 7-8 10-10 1 2h-2l-2 4-7 9-24 24-10 7-1 3h7l6-3 3 1 14-3h9l19-3 7-1-2 2-12 3-20 2-23 6h-16v2l15 5 1-1 12-2 7-2h5l-3 2-19 5 1 2-11-2h-4l9 2-3 2-8 3-3-1h2v-2l-4 1v-1l-7-1 1 2 7 2v2l3 1-3 1-6-3-8-1-3 3 8 1 38 12v1l-8-1-17-5-9-1-22 2-4 2 21 1 25 3 7 2v1h-10l-25-2h-9l12 5 24 5 26 4 3 2-20-1-23-4-22-6-21-6-4-1h-7l16 6 11 3-4 1-13-4-20-6-7-1h-20l-19 5-5 1v2l-17 8-11 7-8 6-11 9-13 12-8 8-7 8-9 10-12 16-13 18-10 16-8 13-13 24-13 26-14 32-11 27-10 28-10 31-7 21-1 1h-90l-3-5-9-29-12-33-13-33-16-35-10-19-8-16-9-16-11-17-10-15-13-18-9-10-8-10-5-6-20-20-8-7-14-11-16-11-16-8-16-6-17-4-15-2v-7l1-1 20-1 22 2 27 5 19 5 17 6 23 11 13 9 12 9 10 9 8 7 10 9 18 18 10 13 10 15 15 24 14 25 8 16 12 26 13 32 6 15 9 26 9 25 6 15 10-27 11-30 13-32 10-23 13-29 12-25 14-24 10-15 8-11 14-19 11-13 12-14 10-10 11-9 14-10 14-8 20-9 24-8h3l1-6 6-10 5-12 6-19 6-11 1 4-5 11-5 16-4 10-6 10-3 6 8-3h6l3-2 5-14 3-19 3 2v2h3l-4-11 5-28h3l3-10 2-10 5-8 1 3-2 3-2 11-2 7-1 12v4l12-42 4-12 5-8 1 2-5 14-6 22-2 12v2l8-22 7-24 3-6 1 3-7 25-2 7-2 8 7 1-1-2h-2v-5l4-6 3-9h1v7 1l7-8 3-4h2l2-4 4-2v-2l8-7 13-12z" fill="#010036"/>
<path transform="translate(969,1046)" d="m0 0h55l1 340 3 14 7 13 11 11 10 6 14 4 15 1 5 2-1 6-2 1h-182l-1-1v-7l22-3 12-4 11-7 8-8 5-8 5-15 1-8z" fill="#010036"/>
<path transform="translate(1127,838)" d="m0 0h47l24 3 28 7 19 8 16 8 15 10 11 9 14 14 12 17 9 16 10 25v3h-63l-3-4-8-20-9-15-7-9-13-13-14-10-16-9-17-6-17-4-15-2h-37l-35 5-52 9h-2v78h-55l-1-39-2-12-7-14-8-7-10-5-7-2h-30l-1-7 1-2 63-8 133-21z" fill="#010036"/>
<path transform="translate(798,1046)" d="m0 0h58l-1 17v141l3 14 6 11 5 6 13 9 13 5 23 3 1 1v6l-2 1h-182l-2-6 1-2 22-3 12-4 9-5 7-6 9-13 4-11 1-7z" fill="#010036"/>
<path transform="translate(1275,1046)" d="m0 0h64l-4 24-6 22-10 24-8 14-10 14-12 14-13 12-17 11-17 8-14 5-18 4-12 2-28 1-21-2-20-5-17-7-13-7-9-7-6-5-9-12-8-16-5-19v-9l7-1 3 9 6 12 7 9 9 9 11 7 13 6 15 5 11 2h24l22-4 12-4 16-8 13-10 10-10 8-11 8-14 7-15 6-21 3-14z" fill="#010036"/>
<path transform="translate(446,977)" d="m0 0h9l6 3 5 6 2 6v8l-3 8-8 7-3 1h-12l-6-4-5-10v-8l3-8 5-6z" fill="#010036"/>
<path transform="translate(1280,977)" d="m0 0 10 1 7 6 3 9v7l-3 8-8 7-3 1h-11l-7-4-4-7-1-10 4-11 6-5z" fill="#010036"/>
<path transform="translate(818,977)" d="m0 0 5 1 4 14 2 13h2l2-12 3-12 3-3h6l2 2 5 21 1 2 2-7 5-17 2-2h4v7l-8 28-2 4h-7l-3-7-4-19-2 4-6 20-2 2-7-1-3-9-5-22v-6z" fill="#010036"/>
<path transform="translate(1132,572)" d="m0 0h15l1 4 5 2 5 6 4 7-2 9-4 6-5 5h-2v2l-4 2h-3v2l-6 2h-10v-1l10-2 8-7v-8l-4-9-6-7-4-2h-7l-7 5-2-1 6-8 10-6z" fill="#E3E4E3"/>
<path transform="translate(990,978)" d="m0 0h17l5 3 3 4v8l-5 6-2 1 1 4 4 5 6 2v5l-3 1-8-3-7-8-2-4-3-1-1 14-5 1-2-2v-30z" fill="#010036"/>
<path transform="translate(1192,978)" d="m0 0h17l5 3 3 7-1 7-6 5h-2l6 8 8 3-1 4-1 1h-9l-7-9-3-5-4-1 1 14-1 1h-6l-1-2 1-35z" fill="#010036"/>
<path transform="translate(1118,978)" d="m0 0h19l6 4 2 5-1 9-5 4-7 2h-8v13l-5 1-2-1v-36z" fill="#010036"/>
<path transform="translate(925,977)" d="m0 0 5 2 8 17 6 16v4h-6l-3-7-5-1h-13l-2 7-7 1 1-6 13-29z" fill="#010036"/>
<path transform="translate(530,977)" d="m0 0h7l7 3 3 3v5l-5-1-4-2h-10l-5 5-2 7 2 8 2 3 3 1h8l4-2 1-5-8-1-1-4 1-1h15l1 4-1 14-10 2h-13l-7-4-4-8v-14l4-6 6-5z" fill="#010036"/>
<path transform="translate(740,977)" d="m0 0 4 1 1 15h18v-14l1-1h5l1 11v24l-1 3h-5l-1-1v-15h-18v15l-1 1h-6v-38z" fill="#010036"/>
<path transform="translate(1547,977)" d="m0 0h16v7h-17v9h16v6l-2 1-14 1v9l17-1v6l-3 1h-20l-2-4v-28l1-6z" fill="#010036"/>
<path transform="translate(597,978)" d="m0 0h23v6l-16 1-1 9 15-1 2 1v5l-1 1-15 1-1 9h17l1 5-3 1h-22l-1-3 1-34z" fill="#010036"/>
<path transform="translate(676,977)" d="m0 0 9 1 7 6v5l-5-1-4-3-5-1-4 3 1 4 14 6 3 3 1 5-3 7-5 4h-12l-6-4-2-2v-6l3-1 7 6 6 1 4-3v-4l-12-4-6-5-1-2v-6l4-6z" fill="#010036"/>
<path transform="translate(1278,984)" d="m0 0h9l4 4 2 5v7l-3 7-5 3h-7l-5-3-3-9 2-9z" fill="#E4E5E4"/>
<path transform="translate(446,984)" d="m0 0h9l5 5 1 4v7l-2 5-5 4-2 1-9-1-4-6-1-9 3-6z" fill="#E4E5E4"/>
<path transform="translate(1347,978)" d="m0 0h24l-1 6-16 1v9h14l1 1v5l-15 1v14l-1 1h-6z" fill="#010036"/>
<path transform="translate(357,977)" d="m0 0h5l6 7 4 7h2l7-12 3-2 4 1-2 6-8 12-1 1-1 18-1 1h-5l-1-1-1-16-9-15-2-3z" fill="#010036"/>
<path transform="translate(1471,978)" d="m0 0h6v31l17 1 1 4-1 1-12 1h-10l-2-1z" fill="#010036"/>
<path transform="translate(1416,977)" d="m0 0 5 1 1 2v12l-1 23h-6v-37z" fill="#010036"/>
<path transform="translate(1124,984)" d="m0 0h11l3 2v7l-2 2-4 1h-8l-1-2v-7z" fill="#E4E5E4"/>
<path transform="translate(1200,482)" d="m0 0 2 1-14 13-8 7-11 12-7 8-4 5-8 7-5 5-2 1 2-5 7-6 6-8 4-4h2l2-4 10-10 5-6 11-9z" fill="#010036"/>
<path transform="translate(1200,983)" d="m0 0 8 1 2 2v7l-4 2h-7l-2-1v-9z" fill="#E4E5E4"/>
<path transform="translate(996,984)" d="m0 0h10l2 2v6l-5 3h-6l-2-2v-7z" fill="#E4E5E4"/>
<path transform="translate(1227,525)" d="m0 0m-2 1h2l-1 4-4 3h-2l-2 5-7 5 1-9 6-5z" fill="#E4E5E4"/>
<path transform="translate(925,987)" d="m0 0 4 4 3 10h-12z" fill="#E4E5E4"/>
<path transform="translate(1082,553)" d="m0 0 1 2-4 12-9 21-2-1 1-5 9-20z" fill="#010036"/>
<path transform="translate(1207,535)" d="m0 0 3 1-1 4-2 2h-7l-5 1v-3z" fill="#E4E5E4"/>
<path transform="translate(1192,509)" d="m0 0 4 1-16 7-14 10-4 3 2-4 7-6 14-8z" fill="#010036"/>
<path transform="translate(1176,530)" d="m0 0 3 1h-2l-1 4-9 4h-4v-2z" fill="#E4E5E4"/>
<path transform="translate(1091,596)" d="m0 0 1 3-3 9-6 11h-3l8-17z" fill="#010036"/>
<path transform="translate(1099,540)" d="m0 0h2l-1 14-4 12-1-3z" fill="#010036"/>
<path transform="translate(1208,516)" d="m0 0 2 1-10 7-7 5-2-1 4-5z" fill="#010036"/>
<path transform="translate(1189,545)" d="m0 0h6l4 2 6 1-3 3-8-1v-3h-5z" fill="#E4E5E4"/>
<path transform="translate(1106,563)" d="m0 0 2 4-2 5-2 3-3-1z" fill="#E4E5E4"/>
</svg>
